<?xml version="1.0" encoding="UTF-8" standalone="no"?>
<!DOCTYPE svg PUBLIC "-//W3C//DTD SVG 1.1//EN" "http://www.w3.org/Graphics/SVG/1.1/DTD/svg11.dtd"><svg width="100%"
    height="24px" viewBox="0 0 95 104" version="1.1" xmlns="http://www.w3.org/2000/svg"
    xmlns:xlink="http://www.w3.org/1999/xlink" xml:space="preserve" xmlns:serif="http://www.serif.com/"
    style="fill-rule:evenodd;clip-rule:evenodd;stroke-linecap:round;stroke-linejoin:round;">
    <path
        d="M35.27,86.22c-22.044,6.613 -22.044,-11.022 -30.861,-13.227m61.723,26.453l-0,-17.062c0.334,-4.25 -1.177,-8.446 -4.145,-11.507c13.844,-1.543 28.393,-6.789 28.393,-30.861c-0.001,-6.154 -2.37,-12.077 -6.613,-16.533c2.009,-5.384 1.867,-11.34 -0.397,-16.621c-2.264,-5.282 -5.202,-1.543 -17.238,6.525c-10.104,-2.739 -20.758,-2.739 -30.862,-0c-12.036,-8.068 -17.238,-6.525 -17.238,-6.525c-2.264,5.281 -2.406,11.237 -0.397,16.621c-4.274,4.49 -6.646,10.466 -6.613,16.665c-0,23.896 14.549,29.142 28.392,30.861c-2.932,3.03 -4.44,7.169 -4.144,11.375l0,17.062"
        style="fill:none;fill-rule:nonzero;stroke:#fff;stroke-width:10.46px;" />
</svg>